<svg width="540" height="380" viewBox="0 0 540 380" fill="none" xmlns="http://www.w3.org/2000/svg">
<path opacity="0.1" d="M467.699 380C484.814 380 498.688 376.376 498.688 371.905C498.688 367.434 484.814 363.81 467.699 363.81C450.584 363.81 436.71 367.434 436.71 371.905C436.71 376.376 450.584 380 467.699 380Z" fill="#5E81F4"/>
<path opacity="0.1" d="M518.74 336.567C506.941 346.341 490.152 350.386 473.914 352.94L471.181 353.356C454.222 355.882 437.073 357.227 419.867 358.044C410.66 358.49 401.454 358.804 392.247 359.085L385.032 359.298C375.664 359.575 366.278 359.847 356.874 360.115C347.668 360.376 338.461 360.622 329.255 360.851C317.464 361.138 305.673 361.376 293.882 361.567C284.675 361.712 275.469 361.812 266.262 361.867C254.468 361.934 242.677 361.912 230.89 361.799C221.677 361.705 212.47 361.544 203.27 361.315C191.473 361.012 179.682 360.568 167.897 359.985C159.899 359.594 151.905 359.125 143.917 358.577L140.278 358.32C105.986 355.853 71.0782 351.426 41.0696 337.434L40.2604 337.051C39.8582 336.863 39.4561 336.674 39.0539 336.476C33.5441 333.845 28.2663 330.756 23.2767 327.239C14.4045 320.921 7.07799 313.208 3.20639 304.059C-2.86026 289.709 0.347507 273.578 7.27666 259.548C14.2058 245.517 24.6092 232.85 33.6075 219.637C36.2434 215.766 38.7438 211.751 41.0696 207.633C55.6063 181.812 62.8165 151.931 47.5772 127.047C45.5657 123.875 43.3937 120.807 41.0696 117.855C37.3531 113.017 33.5735 108.178 31.0199 102.822C25.0647 90.3591 26.344 76.3427 28.5148 63.0279C31.4221 45.3247 36.7522 26.2572 53.4113 15.197C70.6954 3.71103 95.2285 4.29162 116.68 8.42347C150.032 14.8051 180.816 28.1635 211.89 40.2107C242.965 52.2579 275.517 63.2746 309.683 64.46C317.023 64.7108 324.371 64.444 331.673 63.6617C341.407 62.6629 351.009 60.6439 360.32 57.6381C373.766 53.2159 386.001 46.5633 395.072 37.3174C414.527 17.5532 451.087 16.0582 477.447 27.9942C502.6 39.3834 518.866 63.4875 517.665 87.5626C516.298 114.362 496.199 136.395 477.781 158.994C475.547 161.733 473.342 164.481 471.196 167.248C469.997 168.793 468.821 170.342 467.668 171.893C465.648 174.632 463.695 177.385 461.853 180.171C452.443 194.459 445.79 211.62 452.269 227.044C455.903 235.68 462.837 242.27 471.196 248.023C489.924 260.907 515.775 269.577 527.404 287.614C537.425 303.159 533.713 324.143 518.74 336.567Z" fill="#5E81F4"/>
<g opacity="0.1">
<path d="M268.819 265.853C268.839 266.308 268.872 266.753 268.921 267.188C272.681 265.688 276.371 264.075 279.993 262.349C281.925 262.092 283.722 261.212 285.111 259.842C286.169 259.31 287.223 258.753 288.267 258.197C288.03 257.696 287.763 257.211 287.464 256.745C285.43 253.527 282.337 251.514 278.93 251.625C275.522 251.736 272.574 253.948 270.752 257.282C269.354 259.915 268.687 262.874 268.819 265.853Z" fill="#3F3D56"/>
<path d="M268.263 248.929C268.336 251.895 269.195 254.788 270.752 257.311C272.792 260.52 275.885 262.533 279.292 262.422C279.529 262.422 279.775 262.388 279.993 262.368C281.926 262.112 283.722 261.232 285.111 259.861C286.053 258.963 286.848 257.921 287.465 256.774C290.237 251.417 290.029 245.001 286.914 239.836C284.874 236.618 281.781 234.605 278.374 234.716C274.967 234.827 272.023 237.039 270.201 240.373C268.805 243.001 268.136 245.955 268.263 248.929Z" fill="#3F3D56"/>
<path d="M278.735 245.499C284.569 245.307 289.095 238.952 288.844 231.304C288.594 223.656 283.661 217.612 277.827 217.804C271.992 217.996 267.466 224.351 267.717 231.999C267.967 239.647 272.9 245.691 278.735 245.499Z" fill="#3F3D56"/>
<path d="M278.18 228.579C284.015 228.387 288.541 222.032 288.29 214.384C288.04 206.736 283.107 200.692 277.272 200.884C271.438 201.075 266.912 207.431 267.163 215.078C267.413 222.726 272.346 228.771 278.18 228.579Z" fill="#3F3D56"/>
<path d="M277.626 211.654C283.46 211.462 287.987 205.107 287.736 197.459C287.485 189.811 282.553 183.767 276.718 183.958C270.884 184.15 266.358 190.505 266.608 198.153C266.859 205.801 271.792 211.846 277.626 211.654Z" fill="#3F3D56"/>
<path d="M312.939 80.7067C314.321 78.8201 315.571 76.8392 316.679 74.7785L288.774 71.1296L318.796 70.3649C324.2 57.4976 324.075 42.9694 318.448 30.1979L278.862 52.4349L315.109 23.8825C305.051 7.86098 286.92 -1.21723 268.085 0.338857C249.251 1.89494 232.851 13.8262 225.552 31.2816C218.253 48.7371 221.271 68.8101 233.38 83.3394C231.226 86.2767 229.393 89.4372 227.914 92.7665L264.552 110.324L225.715 98.6803C220.767 115.08 224.423 132.873 235.434 145.985C219.807 167.295 223.161 197.052 243.137 214.338C263.113 231.624 293.003 230.633 311.793 212.061C330.584 193.49 331.964 163.575 314.964 143.348C328.8 124.5 327.964 98.6192 312.939 80.7067Z" fill="#5E81F4"/>
<path opacity="0.1" d="M223.578 114.999C223.931 126.366 228.109 137.28 235.433 145.971C219.803 167.278 223.151 197.036 243.124 214.326C263.097 231.615 292.987 230.63 311.781 212.061C330.575 193.493 331.96 163.578 314.963 143.348C321.464 134.511 223.395 109.312 223.578 114.999Z" fill="black"/>
</g>
<g opacity="0.1">
<path d="M157.942 355.011C157.942 355.33 157.908 355.649 157.87 355.978C155.198 354.914 152.573 353.775 149.994 352.56C148.62 352.38 147.342 351.757 146.353 350.786C145.6 350.402 144.852 350.012 144.108 349.616C144.276 349.262 144.466 348.92 144.678 348.591C146.126 346.299 148.319 344.868 150.743 344.946C153.167 345.023 155.262 346.589 156.537 348.958C157.535 350.815 158.02 352.904 157.942 355.011Z" fill="#3F3D56"/>
<path d="M158.319 342.978C158.272 345.086 157.665 347.143 156.562 348.939C155.113 351.221 152.916 352.657 150.497 352.579L150.014 352.541C148.64 352.361 147.362 351.738 146.373 350.766C145.701 350.129 145.136 349.388 144.697 348.571C142.728 344.767 142.871 340.212 145.074 336.539C146.523 334.247 148.72 332.816 151.139 332.893C153.558 332.971 155.659 334.537 156.957 336.906C157.944 338.772 158.414 340.869 158.319 342.978Z" fill="#3F3D56"/>
<path d="M158.709 330.967C158.88 325.531 155.657 321.018 151.51 320.887C147.362 320.756 143.861 325.056 143.689 330.492C143.518 335.928 146.741 340.441 150.888 340.573C155.036 340.704 158.537 336.403 158.709 330.967Z" fill="#3F3D56"/>
<path d="M159.084 318.937C159.256 313.501 156.033 308.987 151.885 308.856C147.738 308.725 144.237 313.025 144.065 318.461C143.893 323.897 147.116 328.411 151.264 328.542C155.411 328.673 158.913 324.373 159.084 318.937Z" fill="#3F3D56"/>
<path d="M159.464 306.901C159.636 301.465 156.413 296.952 152.265 296.82C148.118 296.689 144.616 300.99 144.445 306.426C144.273 311.862 147.496 316.375 151.644 316.506C155.791 316.637 159.293 312.337 159.464 306.901Z" fill="#3F3D56"/>
<path d="M126.425 223.428C125.441 222.086 124.549 220.679 123.755 219.217L143.591 216.577L122.244 216.094C118.388 206.949 118.465 196.618 122.456 187.532L150.622 203.307L124.827 183.026C131.942 171.583 144.841 165.072 158.261 166.15C171.682 167.228 183.379 175.714 188.581 188.146C193.783 200.579 191.62 214.879 182.974 225.212C184.51 227.298 185.817 229.545 186.871 231.912L160.835 244.423L188.44 236.108C191.97 247.766 189.388 260.419 181.574 269.756C192.708 284.889 190.355 306.047 176.17 318.358C161.984 330.669 140.73 329.997 127.349 316.814C113.968 303.631 112.954 282.366 125.02 267.967C115.167 254.576 115.748 236.174 126.425 223.432V223.428Z" fill="#5E81F4"/>
<path opacity="0.1" d="M189.971 247.725C189.729 255.806 186.77 263.568 181.574 269.756C192.708 284.889 190.355 306.047 176.17 318.358C161.984 330.669 140.73 329.997 127.349 316.814C113.968 303.631 112.954 282.366 125.02 267.967C120.389 261.682 190.106 243.679 189.971 247.725Z" fill="black"/>
</g>
<g opacity="0.1">
<path d="M410.512 292.13C410.512 292.453 410.478 292.768 410.444 293.096C407.769 292.033 405.144 290.894 402.569 289.679C401.194 289.498 399.914 288.875 398.923 287.904C398.175 287.522 397.421 287.131 396.678 286.734C396.847 286.382 397.038 286.04 397.248 285.709C398.696 283.418 400.888 281.987 403.312 282.064C405.736 282.142 407.832 283.708 409.107 286.077C410.105 287.933 410.59 290.023 410.512 292.13Z" fill="#3F3D56"/>
<path d="M410.918 280.097C410.869 282.205 410.261 284.262 409.156 286.058C407.707 288.339 405.515 289.775 403.091 289.698L402.608 289.659C401.233 289.479 399.954 288.856 398.962 287.885C398.293 287.246 397.727 286.505 397.287 285.69C395.317 281.886 395.46 277.331 397.663 273.657C399.112 271.371 401.309 269.935 403.728 270.012C406.147 270.089 408.253 271.656 409.547 274.025C410.537 275.89 411.01 277.986 410.918 280.097Z" fill="#3F3D56"/>
<path d="M411.295 268.082C411.467 262.646 408.244 258.133 404.096 258.002C399.949 257.871 396.447 262.171 396.276 267.607C396.104 273.043 399.327 277.556 403.475 277.687C407.622 277.819 411.124 273.518 411.295 268.082Z" fill="#3F3D56"/>
<path d="M411.675 256.051C411.847 250.615 408.624 246.102 404.476 245.971C400.329 245.84 396.827 250.14 396.656 255.576C396.484 261.012 399.707 265.525 403.855 265.657C408.002 265.788 411.504 261.487 411.675 256.051Z" fill="#3F3D56"/>
<path d="M412.056 244.021C412.228 238.585 409.005 234.072 404.857 233.94C400.71 233.809 397.208 238.11 397.037 243.546C396.865 248.982 400.088 253.495 404.236 253.626C408.383 253.757 411.884 249.457 412.056 244.021Z" fill="#3F3D56"/>
<path d="M378.996 160.546C378.01 159.207 377.119 157.8 376.33 156.336L396.167 153.72L374.819 153.203C370.965 144.058 371.04 133.729 375.027 124.641L403.193 140.416L377.398 120.145C384.501 108.673 397.411 102.136 410.85 103.207C424.289 104.278 436.004 112.777 441.205 125.229C446.406 137.682 444.222 152 435.545 162.33C437.079 164.417 438.384 166.663 439.437 169.031L413.4 181.542L441.006 173.227C444.541 184.882 441.958 197.537 434.14 206.87C445.275 222 442.925 243.158 428.74 255.469C414.556 267.779 393.304 267.107 379.924 253.924C366.545 240.742 365.533 219.477 377.6 205.081C367.748 191.69 368.328 173.288 379.006 160.546H378.996Z" fill="#5E81F4"/>
<path opacity="0.1" d="M442.546 184.844C442.304 192.924 439.343 200.685 434.144 206.87C445.277 222 442.925 243.157 428.741 255.466C414.558 267.776 393.306 267.104 379.927 253.922C366.548 240.741 365.535 219.478 377.6 205.081C372.964 198.801 442.671 180.793 442.546 184.844Z" fill="black"/>
</g>
<path d="M93.4444 368.571C108.716 368.571 121.096 366.226 121.096 363.333C121.096 360.44 108.716 358.095 93.4444 358.095C78.1727 358.095 65.7925 360.44 65.7925 363.333C65.7925 366.226 78.1727 368.571 93.4444 368.571Z" fill="#5E81F4"/>
<path d="M92.9677 365.714C94.8108 365.714 96.305 363.795 96.305 361.429C96.305 359.062 94.8108 357.143 92.9677 357.143C91.1245 357.143 89.6304 359.062 89.6304 361.429C89.6304 363.795 91.1245 365.714 92.9677 365.714Z" fill="#3F3D56"/>
<path d="M92.9677 360C94.8108 360 96.305 358.081 96.305 355.714C96.305 353.347 94.8108 351.429 92.9677 351.429C91.1245 351.429 89.6304 353.347 89.6304 355.714C89.6304 358.081 91.1245 360 92.9677 360Z" fill="#3F3D56"/>
<path d="M92.9677 355.238C94.8108 355.238 96.305 353.319 96.305 350.952C96.305 348.585 94.8108 346.667 92.9677 346.667C91.1245 346.667 89.6304 348.585 89.6304 350.952C89.6304 353.319 91.1245 355.238 92.9677 355.238Z" fill="#3F3D56"/>
<path d="M92.9677 350.476C94.8108 350.476 96.305 348.557 96.305 346.19C96.305 343.824 94.8108 341.905 92.9677 341.905C91.1245 341.905 89.6304 343.824 89.6304 346.19C89.6304 348.557 91.1245 350.476 92.9677 350.476Z" fill="#3F3D56"/>
<path d="M92.9677 344.762C94.8108 344.762 96.305 342.843 96.305 340.476C96.305 338.109 94.8108 336.19 92.9677 336.19C91.1245 336.19 89.6304 338.109 89.6304 340.476C89.6304 342.843 91.1245 344.762 92.9677 344.762Z" fill="#3F3D56"/>
<path d="M92.9677 340C94.8108 340 96.305 338.081 96.305 335.714C96.305 333.347 94.8108 331.429 92.9677 331.429C91.1245 331.429 89.6304 333.347 89.6304 335.714C89.6304 338.081 91.1245 340 92.9677 340Z" fill="#3F3D56"/>
<path d="M92.9677 334.286C94.8108 334.286 96.305 332.367 96.305 330C96.305 327.633 94.8108 325.714 92.9677 325.714C91.1245 325.714 89.6304 327.633 89.6304 330C89.6304 332.367 91.1245 334.286 92.9677 334.286Z" fill="#3F3D56"/>
<path d="M105.433 295.295C105.867 294.738 106.263 294.151 106.618 293.54L98.2513 292.156L107.299 292.229C109.053 288.391 109.159 283.997 107.592 280.078L95.4496 286.409L106.647 278.121C103.785 273.158 98.4074 270.216 92.7074 270.494C87.0074 270.773 81.9385 274.225 79.5689 279.442C77.1993 284.66 77.9252 290.77 81.4505 295.281C80.7739 296.148 80.1917 297.085 79.7138 298.077L90.5753 303.747L78.9942 299.842C77.3414 304.75 78.2653 310.165 81.4505 314.239C76.5335 320.525 77.2488 329.554 83.0936 334.979C88.9384 340.404 97.9501 340.404 103.795 334.979C109.64 329.554 110.355 320.525 105.438 314.239C109.788 308.676 109.788 300.844 105.438 295.281L105.433 295.295Z" fill="#5E81F4"/>
<path opacity="0.1" d="M78.1882 304.986C78.1826 308.402 79.3321 311.72 81.4505 314.403C76.5335 320.648 77.2488 329.616 83.0936 335.006C88.9384 340.395 97.9501 340.395 103.795 335.006C109.64 329.616 110.355 320.648 105.438 314.403C107.477 311.812 78.1882 303.276 78.1882 304.986Z" fill="black"/>
<path d="M167.818 250.924V360C159.811 359.611 151.808 359.143 143.81 358.596L140.167 358.34V250.924C140.167 249.795 140.617 248.712 141.42 247.913C142.222 247.115 143.31 246.667 144.445 246.667H163.54C164.674 246.667 165.763 247.115 166.565 247.913C167.368 248.712 167.818 249.795 167.818 250.924Z" fill="#3F3D56"/>
<path d="M203.099 361.426V177.602C203.099 175.245 205.014 173.333 207.377 173.333H226.472C227.607 173.333 228.695 173.783 229.497 174.584C230.3 175.384 230.751 176.47 230.751 177.602V361.905L203.099 361.426Z" fill="#3F3D56"/>
<path d="M266 361.476V215.27C266 212.912 267.916 211 270.279 211H289.373C291.736 211 293.652 212.912 293.652 215.27V361.162L266 361.476Z" fill="#3F3D56"/>
<path d="M356.615 107.131V360.216C347.398 360.478 338.18 360.723 328.963 360.952V107.131C328.963 104.77 330.879 102.857 333.242 102.857H352.336C354.699 102.857 356.615 104.77 356.615 107.131Z" fill="#3F3D56"/>
<path d="M419.546 158.545V358.009C410.329 358.454 401.112 358.767 391.895 359.048V158.545C391.895 156.193 393.81 154.286 396.173 154.286H415.268C417.631 154.286 419.546 156.193 419.546 158.545Z" fill="#3F3D56"/>
<path d="M154.469 186.667L217.401 116.686L280.333 151.918L343.265 43.8095L406.197 95.4505" stroke="#3F3D56" stroke-width="7" stroke-linecap="round"/>
<path d="M154.469 200C161.842 200 167.819 194.03 167.819 186.667C167.819 179.303 161.842 173.333 154.469 173.333C147.097 173.333 141.12 179.303 141.12 186.667C141.12 194.03 147.097 200 154.469 200Z" fill="#5E81F4"/>
<path d="M217.401 129.524C224.774 129.524 230.751 123.554 230.751 116.19C230.751 108.827 224.774 102.857 217.401 102.857C210.029 102.857 204.052 108.827 204.052 116.19C204.052 123.554 210.029 129.524 217.401 129.524Z" fill="#5E81F4"/>
<path d="M280.334 164.762C287.706 164.762 293.683 158.792 293.683 151.429C293.683 144.065 287.706 138.095 280.334 138.095C272.961 138.095 266.984 144.065 266.984 151.429C266.984 158.792 272.961 164.762 280.334 164.762Z" fill="#5E81F4"/>
<path d="M343.265 56.1905C350.638 56.1905 356.614 50.2209 356.614 42.8571C356.614 35.4933 350.638 29.5238 343.265 29.5238C335.893 29.5238 329.916 35.4933 329.916 42.8571C329.916 50.2209 335.893 56.1905 343.265 56.1905Z" fill="#5E81F4"/>
<path d="M464.362 171.429C471.734 171.429 477.711 165.459 477.711 158.095C477.711 150.731 471.734 144.762 464.362 144.762C456.989 144.762 451.013 150.731 451.013 158.095C451.013 165.459 456.989 171.429 464.362 171.429Z" fill="#5E81F4"/>
<path opacity="0.1" d="M112.991 351.429C117.994 351.429 122.05 350.789 122.05 350C122.05 349.211 117.994 348.571 112.991 348.571C107.989 348.571 103.933 349.211 103.933 350C103.933 350.789 107.989 351.429 112.991 351.429Z" fill="#5E81F4"/>
<path d="M106.793 342.723C106.793 342.723 111.916 342.567 113.46 341.484C115.004 340.4 121.344 339.118 121.729 340.845C122.114 342.572 129.425 349.475 123.653 349.522C117.881 349.569 110.209 348.633 108.669 347.71C107.13 346.787 106.793 342.723 106.793 342.723Z" fill="#A8A8A8"/>
<path opacity="0.2" d="M123.75 348.933C117.976 348.979 110.306 348.066 108.761 347.161C107.587 346.47 107.121 343.998 106.962 342.857H106.793C106.793 342.857 107.116 346.841 108.66 347.746C110.205 348.65 117.86 349.569 123.649 349.522C125.319 349.522 125.896 348.938 125.862 348.089C125.631 348.604 124.996 348.924 123.75 348.933Z" fill="black"/>
<path opacity="0.1" d="M515.375 365.714C524.591 365.714 532.061 364.435 532.061 362.857C532.061 361.279 524.591 360 515.375 360C506.159 360 498.688 361.279 498.688 362.857C498.688 364.435 506.159 365.714 515.375 365.714Z" fill="#5E81F4"/>
<path d="M504.409 349.935C504.409 349.935 513.89 349.641 516.749 347.586C519.607 345.53 531.332 343.079 532.039 346.372C532.746 349.666 546.292 362.766 535.585 362.854C524.878 362.942 510.712 361.171 507.859 359.428C505.005 357.686 504.409 349.935 504.409 349.935Z" fill="#A8A8A8"/>
<path opacity="0.2" d="M535.782 360.788C525.074 360.873 510.907 359.174 508.053 357.503C505.882 356.221 505.015 351.622 504.724 349.524H504.409C504.409 349.524 505.01 356.935 507.859 358.615C510.708 360.295 524.885 361.999 535.588 361.901C538.679 361.901 539.745 360.812 539.687 359.235C539.256 360.173 538.078 360.77 535.782 360.788Z" fill="black"/>
<path fill-rule="evenodd" clip-rule="evenodd" d="M412.017 168.874C411.472 168.217 411.133 167.416 411.042 166.57C410.741 164.707 411.326 162.811 412.625 161.434C413.95 160.134 416.152 159.69 417.745 160.656C418.982 161.4 419.664 162.772 420.283 164.072C420.564 164.663 420.886 165.245 421.207 165.827C421.932 167.138 422.659 168.453 422.942 169.898C423.566 173.093 425.265 175.889 426.969 178.695C428.338 180.948 429.711 183.209 430.536 185.687C430.749 186.326 430.926 186.98 431.103 187.634C431.475 189.011 431.847 190.387 432.557 191.616C433.052 192.408 433.605 193.162 434.213 193.872C436.611 196.871 438.73 200.08 440.545 203.457C441.412 203.624 442.199 204.254 442.953 204.856C443.115 204.985 443.275 205.113 443.434 205.235C444.582 206.122 445.912 206.747 447.331 207.066C447.901 207.134 448.448 207.332 448.928 207.646C449.305 207.96 449.5 208.414 449.697 208.871C449.848 209.224 450.001 209.579 450.239 209.874C450.635 210.313 451.138 210.646 451.7 210.84C451.734 210.671 451.734 210.497 451.734 210.328C451.768 209.429 451.768 208.53 451.768 207.632C448.538 203.838 448.551 198.284 451.797 194.505C451.76 193.106 451.574 191.715 451.242 190.355C451.067 189.693 451.096 188.876 451.632 188.451C451.925 188.275 452.227 188.113 452.538 187.968C452.944 187.63 453.276 187.212 453.512 186.741C455 184.635 457.81 183.914 460.141 185.04C461.205 185.594 462.013 186.476 462.823 187.362C463.364 187.952 463.905 188.544 464.525 189.04C464.928 189.367 465.365 189.651 465.801 189.935C466.223 190.21 466.645 190.485 467.038 190.799C468.64 192.182 469.777 194.018 470.297 196.06C470.815 198.093 471.117 200.174 471.198 202.269C471.281 202.897 471.256 203.534 471.125 204.153C470.963 204.67 470.722 205.159 470.409 205.603C468.924 207.997 466.838 209.968 464.354 211.323C464.339 211.446 464.339 211.571 464.354 211.695C464.377 211.882 464.413 212.06 464.45 212.242L464.457 212.275C464.486 212.266 464.515 212.255 464.544 212.245C464.61 212.221 464.675 212.197 464.739 212.197C465.081 212.12 465.433 212.071 465.784 212.023C466.502 211.924 467.217 211.825 467.842 211.478C468.669 211.017 469.197 210.214 469.727 209.408C470.221 208.657 470.716 207.904 471.456 207.424C471.586 207.339 471.723 207.264 471.865 207.202C471.971 204.455 472.5 201.741 473.434 199.153C473.496 198.977 473.561 198.801 473.627 198.624C474.022 197.554 474.423 196.468 474.364 195.336C474.305 194.202 473.798 193.151 473.301 192.122C473.262 192.041 473.224 191.961 473.185 191.881C471.392 188.103 470.114 184.093 468.841 180.099L468.801 179.977C467.983 177.442 467.171 174.905 466.366 172.367C465.573 171.785 464.855 171.108 464.228 170.353C462.93 168.851 462.072 167.024 461.748 165.072C461.435 163.102 461.927 161.089 463.117 159.482C463.64 158.713 464.474 158.208 465.402 158.095C466.22 158.111 466.995 158.461 467.545 159.062C468.35 159.979 468.971 161.04 469.376 162.187C470.17 164.052 470.979 165.999 470.906 168.029C470.888 168.457 470.836 168.898 470.783 169.341C470.628 170.634 470.472 171.937 471.198 172.952C473.857 176.638 475.986 180.775 478.083 184.85C478.537 185.731 478.989 186.61 479.444 187.48C480.097 188.648 480.654 189.866 481.11 191.123C481.734 193.157 482.03 195.277 481.987 197.404C482.006 201.39 481.461 205.356 480.915 209.303C480.667 211.091 480.35 212.985 479.493 214.526C480.055 216.434 480.35 218.409 480.37 220.396C480.39 220.855 480.317 221.314 480.156 221.744C479.867 222.246 479.502 222.701 479.074 223.092C477.917 224.391 477.384 226.123 477.613 227.842C477.751 229.444 477.604 231.058 477.179 232.61C476.205 236.896 475.231 241.186 474.447 245.51C474.261 246.314 474.2 247.142 474.267 247.964C474.331 248.405 474.46 248.837 474.588 249.267C474.801 249.979 475.012 250.685 474.924 251.414C474.787 251.959 474.684 252.513 474.617 253.071C474.649 253.494 474.748 253.91 474.91 254.303C475.118 254.908 475.394 255.661 475.703 256.506C477.034 260.144 478.996 265.502 478.972 268.247C478.719 268.179 478.456 268.121 478.193 268.063C478.62 270.478 479.365 272.834 480.11 275.193C480.724 277.134 481.338 279.078 481.778 281.06C482.447 284.256 482.751 287.517 482.684 290.78C482.617 292.244 482.643 293.711 482.761 295.172C482.844 295.906 482.987 296.63 483.13 297.355C483.241 297.914 483.351 298.473 483.434 299.037C483.639 300.775 483.716 302.526 483.663 304.274C483.719 307.02 483.564 309.766 483.2 312.488C482.689 315.644 483.133 318.787 483.579 321.947C483.789 323.431 483.999 324.918 484.111 326.412C484.292 329.687 484.668 332.949 485.236 336.181C485.32 336.61 485.41 337.037 485.501 337.464C485.7 338.399 485.898 339.333 486.025 340.278C486.269 342.107 486.244 343.96 486.219 345.812C486.188 348.099 486.157 350.383 486.634 352.613C486.689 352.875 486.751 353.141 486.813 353.409C487.199 355.08 487.607 356.846 486.692 358.237C486.508 358.519 486.275 358.768 486.043 359.017C485.858 359.216 485.673 359.414 485.513 359.628C485.102 360.096 484.972 360.745 485.173 361.333C485.264 361.528 485.409 361.691 485.553 361.853C485.738 362.062 485.922 362.269 485.991 362.541C486.161 363.281 485.401 363.894 484.7 364.208C484.659 364.228 484.618 364.244 484.577 364.259C484.55 364.269 484.523 364.279 484.495 364.29C484.593 364.805 484.456 365.335 484.12 365.74C483.705 366.132 483.187 366.399 482.625 366.513L473.429 369.281C471.359 369.895 469.128 370.489 467.097 370.006C467.048 370.295 466.922 370.565 466.731 370.789C466.315 371.178 465.797 371.446 465.236 371.562L456.04 374.325C453.692 375.031 451.11 375.731 448.86 374.765C448.212 374.503 447.644 374.081 447.209 373.538C446.487 372.477 446.274 371.155 446.624 369.924C446.745 369.308 447.054 368.744 447.511 368.31C448.139 367.882 448.878 367.644 449.639 367.624C450.288 367.604 450.924 367.439 451.5 367.141C451.673 367.027 451.817 366.877 451.924 366.701C451.398 366.184 450.881 365.643 450.394 365.097C450.789 364.938 450.93 364.387 450.969 363.971C451.359 359.871 450.448 355.832 449.534 351.782C449.077 349.756 448.62 347.729 448.324 345.689C447.881 342.619 447.803 339.507 448.09 336.418C448.123 336.079 448.16 335.74 448.197 335.401C448.286 334.58 448.376 333.757 448.407 332.93C448.526 329.842 447.832 326.816 447.137 323.784C446.462 320.837 445.785 317.884 445.85 314.86C445.882 312.949 445.208 311.055 444.541 309.183C444.213 308.263 443.887 307.348 443.648 306.439C443.01 303.989 442.976 301.429 442.976 298.902L442.854 278.968C442.84 276.276 442.835 273.508 443.726 270.962C444.158 269.554 444.277 268.071 444.077 266.614C443.503 266.367 442.937 266.09 442.372 265.815C440.495 264.9 438.637 263.994 436.6 264.198C435.889 262.338 436.727 256.134 437.394 254.26C439.996 246.865 440.501 238.903 438.855 231.243C438.563 229.898 438.609 228.514 438.656 227.131C438.705 225.681 438.753 224.233 438.412 222.831C438.29 222.186 438.042 221.57 437.681 221.02C437.313 220.465 436.684 220.137 436.016 220.15C436.006 218.449 436.05 216.768 436.162 215.067C435.085 214.196 434.168 213.149 433.449 211.97C432.309 210.132 431.567 208.091 430.827 206.052C430.602 205.433 430.377 204.814 430.141 204.201C429.006 201.246 427.611 198.407 426.214 195.565C425.416 193.943 424.618 192.32 423.868 190.673C422.69 188.091 422.116 185.367 421.54 182.632C421.105 180.568 420.668 178.498 419.971 176.479C419.065 173.891 417.188 171.75 414.73 170.502C414.527 170.401 414.319 170.305 414.111 170.209C413.345 169.855 412.572 169.497 412.017 168.874ZM467.014 362.575C467.663 362.555 468.299 362.39 468.875 362.092C469.205 361.819 469.444 361.454 469.561 361.044C469.362 360.826 469.167 360.604 468.987 360.372C469.6 360.275 470.365 359.831 470.365 359.212C470.319 358.593 470.184 357.983 469.966 357.401C469.678 356.35 469.63 355.249 469.824 354.178C469.901 353.764 470.01 353.367 470.12 352.972C470.212 352.638 470.303 352.306 470.375 351.965C470.521 351.139 470.619 350.305 470.667 349.468C470.93 346.456 471.523 343.482 472.435 340.597C473.054 338.644 472.652 336.666 472.245 334.663C472.069 333.796 471.893 332.925 471.797 332.05C471.756 331.667 471.732 331.279 471.708 330.891C471.646 329.887 471.583 328.881 471.232 327.944C471.086 327.552 470.895 327.187 470.704 326.823C470.513 326.46 470.324 326.098 470.18 325.711C469.513 323.924 469.912 321.928 470.316 320.059C467.678 315.303 466.652 309.711 465.662 304.321C465.572 303.83 465.482 303.341 465.392 302.854L463.565 293.027C463.307 291.573 463.01 290.056 462.104 288.882C461.157 293.22 460.785 297.662 460.998 302.096C461.109 303.373 461.093 304.658 460.95 305.932C460.815 306.776 460.55 307.589 460.285 308.404C460.107 308.95 459.929 309.496 459.79 310.053C459.271 312.096 459.299 314.209 459.327 316.324C459.341 317.365 459.355 318.406 459.303 319.44C459.272 320.026 459.22 320.61 459.169 321.195C459.109 321.875 459.05 322.555 459.021 323.238C458.782 328.837 460.672 334.282 462.537 339.568C463.405 341.997 463.765 344.681 464.116 347.295C464.234 348.175 464.351 349.046 464.486 349.898L464.51 350.048C465.013 353.25 465.518 356.456 465.772 359.686C465.786 359.865 465.799 360.045 465.813 360.226C465.876 361.055 465.94 361.897 466.04 362.73C466.361 362.661 466.687 362.609 467.014 362.575Z" fill="url(#paint0_linear_0_1670)"/>
<path d="M449.472 368.346C448.699 368.367 447.949 368.614 447.312 369.057C446.847 369.502 446.532 370.083 446.412 370.719C446.057 371.986 446.274 373.346 447.005 374.434C447.447 374.996 448.024 375.432 448.681 375.701C450.964 376.703 453.584 375.972 455.967 375.246L465.299 372.402C465.868 372.284 466.393 372.008 466.816 371.606C467.343 370.887 467.359 369.908 466.856 369.172C466.354 368.466 465.67 367.913 464.879 367.575C461.977 366.143 458.705 365.818 455.517 365.757C454.331 365.757 453.159 365.467 452.353 366.393C451.928 366.894 452.007 367.43 451.365 367.855C450.777 368.159 450.131 368.327 449.472 368.346Z" fill="#3F3D56"/>
<path d="M467.588 363.583C466.815 363.605 466.066 363.852 465.428 364.294C464.964 364.739 464.649 365.32 464.528 365.956C464.174 367.224 464.391 368.586 465.121 369.676C465.564 370.234 466.141 370.669 466.797 370.938C469.085 371.939 471.7 371.213 474.083 370.487L483.415 367.638C483.984 367.52 484.51 367.245 484.933 366.842C485.459 366.125 485.475 365.148 484.973 364.414C484.471 363.708 483.787 363.155 482.995 362.816C480.089 361.384 476.816 361.054 473.628 360.994C472.442 360.994 471.275 360.708 470.465 361.635C470.039 362.135 470.119 362.666 469.476 363.092C468.892 363.4 468.246 363.568 467.588 363.583Z" fill="#3F3D56"/>
<path d="M459.391 263.645C464.742 263.103 470.125 262.951 475.498 263.189C475.853 263.185 476.205 263.241 476.542 263.354C477.725 263.838 477.908 265.399 478.018 266.674C478.499 271.85 480.741 276.672 481.866 281.741C482.527 284.927 482.827 288.179 482.761 291.434C482.696 292.888 482.721 294.345 482.838 295.796C482.982 297.09 483.319 298.359 483.501 299.648C483.704 301.38 483.78 303.125 483.727 304.868C483.782 307.601 483.63 310.334 483.27 313.044C482.53 317.662 483.824 322.252 484.17 326.924C484.342 330.191 484.707 333.446 485.262 336.67C485.526 338.032 485.858 339.379 486.041 340.751C486.579 344.826 485.791 349.023 486.642 353.046C487.036 354.926 487.748 357.039 486.7 358.648C486.373 359.133 485.892 359.545 485.536 360.034C485.129 360.5 485.001 361.149 485.199 361.735C485.406 362.176 485.887 362.467 486.007 362.937C486.195 363.679 485.425 364.285 484.733 364.6C479.514 366.974 472.786 365.302 469.265 360.752C469.871 360.655 470.612 360.214 470.626 359.593C470.58 358.977 470.447 358.37 470.232 357.79C469.948 356.745 469.901 355.649 470.092 354.582C470.232 353.836 470.482 353.128 470.636 352.377C470.78 351.553 470.876 350.721 470.924 349.886C471.184 346.884 471.77 343.92 472.67 341.046C473.545 338.26 472.353 335.439 472.04 332.531C471.896 331.155 471.958 329.735 471.482 328.436C471.194 327.67 470.727 326.982 470.443 326.216C469.784 324.428 470.179 322.441 470.578 320.58C467.736 315.409 466.788 309.244 465.716 303.433L463.912 293.644C463.643 292.19 463.349 290.683 462.469 289.51C461.534 293.832 461.167 298.259 461.377 302.677C461.486 303.95 461.47 305.231 461.329 306.501C461.108 307.907 460.526 309.23 460.185 310.606C459.439 313.645 459.877 316.834 459.704 319.96C459.636 321.225 459.478 322.48 459.425 323.745C459.189 329.328 461.055 334.756 462.897 340.024C464.027 343.256 464.277 346.93 464.821 350.313C465.302 353.555 465.836 356.797 466.091 360.068C466.326 363.073 466.432 366.325 468.289 368.685C466.591 369.795 464.84 370.924 462.854 371.307C460.539 371.672 458.17 371.209 456.159 369.999C454.159 368.793 452.371 367.262 450.868 365.467C451.258 365.331 451.397 364.76 451.436 364.348C452.013 358.212 449.7 352.232 448.824 346.125C448.387 343.066 448.309 339.966 448.594 336.888C448.704 335.73 448.863 334.571 448.906 333.408C449.137 327.345 446.237 321.506 446.343 315.438C446.391 312.593 444.9 309.792 444.169 307.044C443.539 304.621 443.519 302.052 443.505 299.532L443.385 279.662C443.385 276.977 443.385 274.224 444.246 271.69C445.304 268.636 444.092 265.132 443.909 261.905C448.907 263.501 454.167 264.092 459.391 263.645Z" fill="#696791"/>
<path d="M442.103 207.009C440.09 202.866 437.63 198.958 434.769 195.355C434.171 194.651 433.627 193.903 433.14 193.117C432.11 191.319 431.804 189.207 431.152 187.239C429.332 181.723 424.791 177.292 423.684 171.587C423.282 169.514 421.969 167.729 421.069 165.801C420.46 164.513 419.789 163.153 418.573 162.425C417.006 161.461 414.841 161.905 413.538 163.197C412.268 164.56 411.698 166.439 411.996 168.284C412.085 169.124 412.418 169.919 412.954 170.57C413.648 171.356 414.688 171.712 415.622 172.185C418.036 173.417 419.883 175.54 420.776 178.111C422.372 182.764 422.578 187.693 424.609 192.187C426.64 196.681 429.025 200.992 430.779 205.587C431.775 208.196 432.57 210.891 434.031 213.302C435.492 215.713 437.773 217.734 440.527 218.095C440.508 216.347 440.772 214.608 441.308 212.945C441.907 211.045 442.97 208.808 442.103 207.009Z" fill="#A0616A"/>
<path d="M472.494 211.221C472.37 207.779 472.899 204.344 474.052 201.104C474.494 199.863 475.012 198.602 474.968 197.283C474.906 196.056 474.33 194.931 473.808 193.821C472.004 189.999 470.738 185.949 469.491 181.908L467.093 174.289C466.311 173.707 465.604 173.028 464.987 172.268C463.709 170.768 462.864 168.938 462.546 166.981C462.237 165.01 462.723 162.996 463.894 161.392C464.411 160.621 465.231 160.113 466.143 160C466.948 160.018 467.711 160.37 468.254 160.974C469.045 161.89 469.657 162.951 470.057 164.099C470.839 165.969 471.635 167.916 471.563 169.941C471.496 171.626 470.877 173.505 471.851 174.873C475.036 179.362 477.448 184.518 479.971 189.42C480.614 190.588 481.163 191.808 481.611 193.067C482.227 195.106 482.519 197.233 482.475 199.366C482.475 203.354 481.957 207.326 481.419 211.279C481.079 213.757 480.633 216.455 478.786 218.095C476.868 215.603 474.94 213.168 472.494 211.221Z" fill="#A0616A"/>
<path d="M460.07 212.381C465.6 212.381 470.082 207.904 470.082 202.381C470.082 196.858 465.6 192.381 460.07 192.381C454.541 192.381 450.059 196.858 450.059 202.381C450.059 207.904 454.541 212.381 460.07 212.381Z" fill="#A0616A"/>
<path d="M464.581 213.214C464.822 215.066 465.787 216.725 466.728 218.324C467.295 219.312 468.02 220.363 469.129 220.472C466.242 222.029 463.209 223.283 460.077 224.214C459.012 224.582 457.896 224.767 456.772 224.762C455.821 224.689 454.889 224.443 454.021 224.036C450.172 222.313 447.306 218.87 446.245 214.696C447.486 214.73 448.727 214.632 449.948 214.404C450.645 214.349 451.295 214.02 451.763 213.486C452.042 212.986 452.172 212.412 452.138 211.837C452.186 210.129 452.191 208.416 452.138 206.708C454.587 206.547 457.043 206.859 459.38 207.626C460.341 207.947 461.301 208.332 462.262 208.584C462.867 208.742 464.533 208.584 464.98 208.944C465.715 209.453 464.413 211.956 464.581 213.214Z" fill="#A0616A"/>
<path d="M460.341 219.2C460.565 216.477 462.493 214.206 465.125 213.562C466.155 213.329 467.271 213.358 468.19 212.844C469.769 211.955 470.245 209.79 471.761 208.794C473.277 207.799 475.428 208.352 476.747 209.61C478.066 210.867 478.735 212.659 479.274 214.412C480.078 216.782 480.515 219.264 480.568 221.768C480.588 222.227 480.516 222.684 480.357 223.113C480.071 223.615 479.711 224.068 479.288 224.458C478.145 225.752 477.618 227.484 477.844 229.202C477.981 230.802 477.836 232.413 477.416 233.961C476.454 238.244 475.491 242.522 474.716 246.843C474.534 247.638 474.474 248.457 474.538 249.271C474.687 250.441 475.327 251.548 475.188 252.718C475.052 253.263 474.95 253.816 474.885 254.374C474.916 254.796 475.014 255.211 475.173 255.603C476.266 258.803 479.216 266.135 479.187 269.524C474.062 268.198 466.506 267.902 461.212 267.878C459.756 267.862 458.301 267.927 456.852 268.072C453.372 268.451 449.811 269.475 446.437 268.528C443.304 267.65 440.532 265.129 437.293 265.445C436.591 263.59 437.418 257.399 438.078 255.525C440.648 248.145 441.148 240.192 439.522 232.543C438.93 229.795 439.743 226.877 439.084 224.148C438.963 223.502 438.718 222.887 438.362 222.337C437.997 221.781 437.376 221.453 436.716 221.467C436.656 217.078 437.059 212.694 437.919 208.391C438.237 206.862 438.881 205.055 440.436 204.793C441.812 204.555 442.967 205.73 444.074 206.59C445.209 207.476 446.524 208.099 447.924 208.415C448.488 208.483 449.029 208.683 449.503 208.998C450.162 209.552 450.258 210.547 450.798 211.222C451.76 212.431 453.911 212.329 454.595 213.723C454.744 214.138 454.865 214.563 454.956 214.995C455.279 215.823 455.83 216.541 456.544 217.063C457.616 218.08 458.92 218.814 460.341 219.2Z" fill="#F86D70"/>
<path d="M451.108 191.461C450.934 190.805 450.963 190.024 451.497 189.583C451.764 189.377 452.113 189.301 452.4 189.104C452.803 188.77 453.134 188.357 453.371 187.892C454.867 185.827 457.655 185.128 459.968 186.24C461.721 187.145 462.779 188.956 464.338 190.177C465.129 190.81 466.046 191.279 466.843 191.911C468.437 193.271 469.571 195.08 470.09 197.095C470.606 199.095 470.907 201.144 470.989 203.207C471.071 203.826 471.047 204.455 470.916 205.066C470.754 205.578 470.514 206.063 470.202 206.503C468.6 208.898 466.488 211.073 463.842 212.309C461.197 213.545 457.978 213.746 455.366 212.452C455.103 212.348 454.877 212.169 454.715 211.94C454.567 211.59 454.531 211.204 454.614 210.833C454.755 209.369 454.462 207.896 453.769 206.594C453.283 205.636 452.555 204.812 452.167 203.82C451.806 202.71 451.651 201.545 451.71 200.381C451.667 197.368 451.875 194.364 451.108 191.461Z" fill="#2D293D"/>
<defs>
<linearGradient id="paint0_linear_0_1670" x1="487.233" y1="158.134" x2="410.979" y2="158.134" gradientUnits="userSpaceOnUse">
<stop stop-color="#808080" stop-opacity="0.25"/>
<stop offset="0.54" stop-color="#808080" stop-opacity="0.12"/>
<stop offset="1" stop-color="#808080" stop-opacity="0.1"/>
</linearGradient>
</defs>
</svg>
